<svg width="1243" height="1172" viewBox="0 0 1243 1172" fill="none" xmlns="http://www.w3.org/2000/svg">
<g filter="url(#filter0_f_5_2)">
<path d="M119 119H1123.66L943.787 822.031L385.761 936.027L119 119Z" fill="url(#paint0_linear_5_2)"/>
</g>
<g filter="url(#filter1_f_5_2)">
<ellipse cx="626.673" cy="769.178" rx="292.135" ry="283.822" fill="url(#paint1_linear_5_2)"/>
</g>
<g opacity="0.4" filter="url(#filter2_f_5_2)">
<ellipse cx="626.673" cy="769.178" rx="267.79" ry="260.071" fill="url(#paint2_linear_5_2)"/>
</g>
<g opacity="0.3" filter="url(#filter3_f_5_2)">
<path d="M561.903 262C542.308 505.743 645.327 672.295 667.594 438.35C816.927 515.837 771.852 747.029 885.211 656.922C842.435 1045.09 356.854 1014.51 214.971 767.722C207.509 757.852 203.679 746.405 200.023 737.957C204.455 748.197 209.453 758.123 214.971 767.722C222.322 777.443 233.198 785.634 250.904 787.921C295.506 793.682 209.505 594.706 266.399 553.613C377.611 667.842 377.611 373.332 561.903 262Z" fill="url(#paint3_linear_5_2)"/>
</g>
<g filter="url(#filter4_f_5_2)">
<path d="M700.792 335.132C796.213 365.711 798.292 614.127 852.573 483.589C889.443 590.798 818.185 757.249 914.058 672.501C896.569 848.986 778.696 911.09 844.016 897.85C731.487 1014.49 557.2 1021.43 484.754 928.744C498.813 928.744 500.193 927.798 500.193 911.09C387.798 887.684 333.369 805.065 334.558 748.716C340.696 764.489 347.413 791.375 377.591 795.709C415.313 801.128 342.577 613.985 390.696 575.336C437.567 753.781 410.251 518.606 522.186 455.872C545.939 614.112 723.173 476.048 700.792 335.132Z" fill="url(#paint4_linear_5_2)"/>
</g>
<g opacity="0.3" filter="url(#filter5_f_5_2)">
<path d="M563.176 99C658.884 129.509 671.714 424.814 726.159 294.573C836.402 402.963 799.339 557.63 895.5 473.075C1091.82 1103.66 -14.444 1137.43 262.892 386.111C309.904 564.151 282.506 329.511 394.778 266.919C372.719 434.171 589.67 352.944 563.176 99Z" fill="url(#paint5_linear_5_2)"/>
</g>
<g filter="url(#filter6_f_5_2)">
<path d="M411.444 361.803C382.601 515.631 539.679 452.249 529.807 221C620.46 285.833 664.625 400.166 709.537 443.409C736.701 469.563 828.63 443.187 792.94 345.362C885.663 440.25 823.301 579.476 913.934 498.43C922.957 1092.76 152 1053.5 286.964 475.907C319.326 636.939 307.594 423.381 411.444 361.803Z" fill="url(#paint6_radial_5_2)"/>
</g>
<g filter="url(#filter7_f_5_2)">
<path d="M563.5 373C632.175 393.729 680.665 543.363 719.732 454.876C798.836 528.517 774.137 670.776 843.138 613.328C984.005 1041.76 190.211 1064.7 389.212 554.243C419.5 784.5 415.939 530.526 496.5 488C508 613.328 632 498.5 563.5 373Z" fill="url(#paint7_linear_5_2)"/>
</g>
<g opacity="0.6" filter="url(#filter8_f_5_2)">
<ellipse cx="629" cy="923.5" rx="183" ry="32.5" fill="url(#paint8_linear_5_2)"/>
</g>
<g filter="url(#filter9_i_5_2)">
<path d="M610.442 556.088C609.822 578.665 588.268 595.784 577.569 601.521C609.822 611.083 673.924 624.47 672.312 601.521C670.296 572.835 661.768 537.171 636.648 507.864C615.658 483.376 570.436 476.542 541.44 497.32C518.243 513.942 517.716 549.214 520.352 564.772L565.319 551.436C556.326 540.892 560.202 517.633 577.569 515.307C594.936 512.981 611.218 527.867 610.442 556.088Z" fill="url(#paint9_radial_5_2)"/>
</g>
<g opacity="0.9" filter="url(#filter10_f_5_2)">
<path d="M651.844 589.116C652.877 578.521 651.844 550.661 639.439 523.991C648.949 536.447 664.745 566.912 651.844 589.116Z" fill="#E33F08"/>
</g>
<g opacity="0.4" filter="url(#filter11_f_5_2)">
<path d="M610.082 560.3C610.28 558.919 610.403 557.514 610.442 556.088C611.217 527.867 594.936 512.981 577.569 515.307C560.202 517.633 556.326 540.892 565.319 551.436L545.809 557.222C544.276 543.303 545.837 521.23 561.288 511.895C583.616 498.405 609.977 512.205 613.853 537.636C615.149 546.137 613.277 553.833 610.082 560.3Z" fill="url(#paint10_linear_5_2)"/>
</g>
<g opacity="0.5" filter="url(#filter12_f_5_2)">
<path d="M644.324 517.713C650.428 533.561 656.684 555.052 655.255 571.129C652.774 599.04 634.787 583.379 632.306 563.686C632.184 562.72 632.062 561.706 631.934 560.65C629.462 540.163 625.072 503.793 587.028 497.01C547.022 489.877 535.393 530.813 535.393 540.737C535.393 550.661 540.665 551.591 542.37 544.459C542.509 543.879 542.664 543.138 542.846 542.266C544.91 532.396 550.492 505.693 575.708 505.693C603.154 505.693 614.009 525.386 619.436 540.737C624.288 554.462 623.191 576.864 597.304 585.667C590.605 593.205 582.793 598.72 577.569 601.521C609.822 611.083 673.924 624.47 672.312 601.521C670.517 575.979 663.559 544.906 644.324 517.713Z" fill="url(#paint11_linear_5_2)"/>
</g>
<g opacity="0.6" filter="url(#filter13_f_5_2)">
<path d="M623.623 535.93C617.793 512.237 597.056 503.574 588.579 501.972C650.138 509.104 633.082 592.683 625.949 604.002C618.816 615.322 601.294 617.803 608.582 604.002C615.87 590.202 630.911 565.547 623.623 535.93Z" fill="#E33F08"/>
</g>
<g filter="url(#filter14_d_5_2)">
<mask id="mask0_5_2" style="mask-type:alpha" maskUnits="userSpaceOnUse" x="413" y="597" width="441" height="320">
<path d="M709.983 916.296H559.409C536.02 916.296 524.326 916.296 515.479 914.969C449.02 904.999 403.724 842.373 415.061 776.134C416.57 767.316 420.232 756.21 427.554 733.997L427.554 733.996C433.389 716.296 436.306 707.446 439.73 699.72C464.684 643.408 517.983 604.857 579.276 598.787C587.686 597.955 597.004 597.955 615.642 597.955H653.394C671.68 597.955 680.823 597.955 689 598.742C753.75 604.974 809.364 647.389 832.499 708.186C835.421 715.863 837.839 724.68 842.674 742.314L842.675 742.316C848.191 762.431 850.95 772.489 852.022 780.548C860.739 846.061 814.812 906.279 749.326 915.198C741.271 916.296 730.841 916.296 709.983 916.296Z" fill="#FF7F0A"/>
</mask>
<g mask="url(#mask0_5_2)">
<g filter="url(#filter15_i_5_2)">
<path d="M709.983 916.296H559.409C536.02 916.296 524.326 916.296 515.479 914.969C449.02 904.999 403.724 842.373 415.061 776.134C416.57 767.316 420.232 756.21 427.554 733.997L427.554 733.996C433.389 716.296 436.306 707.446 439.73 699.72C464.684 643.408 517.983 604.857 579.276 598.787C587.686 597.955 597.004 597.955 615.642 597.955H653.394C671.68 597.955 680.823 597.955 689 598.742C753.75 604.974 809.364 647.389 832.499 708.186C835.421 715.863 837.839 724.68 842.674 742.314L842.675 742.316C848.191 762.431 850.95 772.489 852.022 780.548C860.739 846.061 814.812 906.279 749.326 915.198C741.271 916.296 730.841 916.296 709.983 916.296Z" fill="url(#paint12_radial_5_2)"/>
</g>
<g filter="url(#filter16_ddi_5_2)">
<path d="M520.351 664.636C501.951 711.432 490.47 766.646 503.53 830.397C510.004 862 513.241 877.801 531.907 895.116C533.868 896.936 537.536 899.928 539.711 901.484C560.42 916.296 582.458 916.296 628.652 916.296C672.727 916.296 697.678 916.296 718.387 901.484C720.563 899.928 724.23 896.936 726.191 895.116C744.858 877.801 748.095 862 754.569 830.397C767.628 766.646 756.147 711.432 737.747 664.636C733.919 654.899 732.004 650.031 727.248 642.471C714.674 622.489 687.544 604.005 664.347 599.615C655.572 597.955 644.656 597.955 628.652 597.955C610.529 597.955 602.527 597.955 593.751 599.615C570.554 604.005 543.424 622.489 530.851 642.471C526.094 650.031 524.18 654.899 520.351 664.636Z" fill="url(#paint13_radial_5_2)"/>
</g>
<g filter="url(#filter17_f_5_2)">
<ellipse cx="621.845" cy="668.519" rx="151.068" ry="54.4623" transform="rotate(1.0527 621.845 668.519)" fill="url(#paint14_linear_5_2)"/>
</g>
<g filter="url(#filter18_f_5_2)">
<ellipse cx="583.046" cy="683.473" rx="81.4038" ry="28.2212" transform="rotate(-71.0877 583.046 683.473)" fill="url(#paint15_linear_5_2)"/>
</g>
<g opacity="0.8" filter="url(#filter19_f_5_2)">
<path d="M543.122 912.172C423.672 890.09 422.634 784.444 423.672 738.75L369.632 775.252L382.402 918.661L543.122 980.956C583.977 970.141 643.689 930.762 543.122 912.172Z" fill="#FFE600"/>
</g>
<g opacity="0.5" filter="url(#filter20_f_5_2)">
<path d="M828.924 761.08H435.998C432.69 776.792 435.037 820.995 470.887 872.104C515.7 935.989 724.412 933.508 791.554 882.803C845.267 842.239 838.848 784.752 828.924 761.08Z" fill="url(#paint16_linear_5_2)"/>
</g>
<g filter="url(#filter21_f_5_2)">
<path d="M509.712 762.16C509.087 831.484 524.758 872.913 543.126 901C481.378 866.689 477.861 748.755 505.609 686.516C527.806 636.725 560.452 613.426 574 608C559.54 619.809 510.494 675.505 509.712 762.16Z" fill="#EC6830"/>
</g>
<g opacity="0.2" filter="url(#filter22_iif_5_2)">
<path d="M767.764 768.216C768.422 848.331 714.854 885.232 695.506 917.691C848.577 917.691 838.877 757.781 809.649 685.854C786.266 628.312 730.735 585.433 648.122 594.111C663.354 607.759 766.94 668.071 767.764 768.216Z" fill="#511F0E"/>
</g>
<g filter="url(#filter23_f_5_2)">
<path d="M752.356 764.392C752.936 832.265 738.413 872.826 721.391 900.325C793.428 865.835 786.941 750.298 761.227 689.363C740.656 640.615 705.335 618.773 692.78 613.461C706.18 625.023 751.632 679.552 752.356 764.392Z" fill="#67B108" fill-opacity="0.83"/>
</g>
</g>
</g>
<circle cx="543.35" cy="702.416" r="59.4876" fill="url(#paint17_linear_5_2)"/>
<path d="M593.006 669.645C584.135 662.533 572.875 658.28 560.621 658.28C532.006 658.28 508.809 681.477 508.809 710.091C508.809 735.869 527.635 757.25 552.287 761.236C549.372 761.676 546.388 761.903 543.35 761.903C510.496 761.903 483.863 735.27 483.863 702.416C483.863 669.562 510.496 642.928 543.35 642.928C564.095 642.928 582.36 653.547 593.006 669.645Z" fill="url(#paint18_linear_5_2)"/>
<circle r="59.4876" transform="matrix(-1 0 0 1 714.424 702.417)" fill="url(#paint19_linear_5_2)"/>
<path d="M664.77 669.644C673.641 662.533 684.901 658.279 697.154 658.279C725.769 658.279 748.966 681.476 748.966 710.091C748.966 735.869 730.141 757.25 705.488 761.236C708.403 761.675 711.388 761.903 714.425 761.903C747.279 761.903 773.913 735.269 773.913 702.415C773.913 669.561 747.279 642.927 714.425 642.927C693.68 642.927 675.416 653.546 664.77 669.644Z" fill="url(#paint20_linear_5_2)"/>
<path d="M614.503 736.442C619.912 725.696 622.617 720.322 626.622 719.325C628.049 718.97 629.541 718.97 630.968 719.325C634.973 720.322 637.677 725.696 643.086 736.442V736.442C647.624 745.457 649.892 749.964 648.681 753.532C648.246 754.815 647.526 755.984 646.576 756.95C643.933 759.635 638.887 759.635 628.795 759.635V759.635C618.703 759.635 613.657 759.635 611.014 756.95C610.064 755.984 609.344 754.815 608.908 753.532C607.697 749.964 609.966 745.457 614.503 736.442V736.442Z" fill="url(#paint21_linear_5_2)"/>
<path d="M618.68 743.458C621.421 737.743 622.792 734.885 624.481 733.715C627.136 731.877 630.653 731.877 633.308 733.715C634.997 734.885 636.367 737.743 639.108 743.458V743.458C641.274 747.975 642.357 750.234 642.324 752.07C642.272 754.952 640.626 757.567 638.05 758.86C636.409 759.684 633.904 759.684 628.894 759.684V759.684C623.884 759.684 621.38 759.684 619.738 758.86C617.162 757.567 615.516 754.952 615.464 752.07C615.431 750.234 616.514 747.975 618.68 743.458V743.458Z" fill="url(#paint22_linear_5_2)"/>
<path d="M557.411 843.107V795.503H700.067V843.107C712.615 840.308 738.531 826.978 750.853 795.503H778.373C754.68 880.725 682.855 891.176 628.739 891.176C574.623 891.176 502.798 880.725 479.105 795.503H506.625C518.947 826.978 544.863 840.308 557.411 843.107Z" fill="url(#paint23_linear_5_2)"/>
<path d="M557.411 843.03H569.533V795.503H557.411V843.03Z" fill="url(#paint24_linear_5_2)"/>
<path d="M687.945 795.503V843.03H700.067V795.503H687.945Z" fill="url(#paint25_linear_5_2)"/>
<path d="M752.943 795.503C729.064 876.29 673.658 876.29 628.739 876.29C583.82 876.29 521.747 862.579 504.535 795.503H479.105C502.798 880.725 574.623 891.176 628.739 891.176C682.855 891.176 754.68 880.725 778.373 795.503H752.943Z" fill="url(#paint26_linear_5_2)"/>
<g opacity="0.2" filter="url(#filter24_f_5_2)">
<ellipse cx="716.664" cy="703.555" rx="68.4894" ry="66.1677" transform="rotate(-113.587 716.664 703.555)" fill="#8EA826"/>
</g>
<defs>
<filter id="filter0_f_5_2" x="0.246017" y="0.246017" width="1242.17" height="1054.54" filterUnits="userSpaceOnUse" color-interpolation-filters="sRGB">
<feFlood flood-opacity="0" result="BackgroundImageFix"/>
<feBlend mode="normal" in="SourceGraphic" in2="BackgroundImageFix" result="shape"/>
<feGaussianBlur stdDeviation="59.377" result="effect1_foregroundBlur_5_2"/>
</filter>
<filter id="filter1_f_5_2" x="215.785" y="366.602" width="821.777" height="805.152" filterUnits="userSpaceOnUse" color-interpolation-filters="sRGB">
<feFlood flood-opacity="0" result="BackgroundImageFix"/>
<feBlend mode="normal" in="SourceGraphic" in2="BackgroundImageFix" result="shape"/>
<feGaussianBlur stdDeviation="59.377" result="effect1_foregroundBlur_5_2"/>
</filter>
<filter id="filter2_f_5_2" x="240.129" y="390.353" width="773.088" height="757.65" filterUnits="userSpaceOnUse" color-interpolation-filters="sRGB">
<feFlood flood-opacity="0" result="BackgroundImageFix"/>
<feBlend mode="normal" in="SourceGraphic" in2="BackgroundImageFix" result="shape"/>
<feGaussianBlur stdDeviation="59.377" result="effect1_foregroundBlur_5_2"/>
</filter>
<filter id="filter3_f_5_2" x="87.2062" y="149.184" width="910.821" height="915.019" filterUnits="userSpaceOnUse" color-interpolation-filters="sRGB">
<feFlood flood-opacity="0" result="BackgroundImageFix"/>
<feBlend mode="normal" in="SourceGraphic" in2="BackgroundImageFix" result="shape"/>
<feGaussianBlur stdDeviation="56.4081" result="effect1_foregroundBlur_5_2"/>
</filter>
<filter id="filter4_f_5_2" x="287.037" y="287.631" width="674.523" height="752.306" filterUnits="userSpaceOnUse" color-interpolation-filters="sRGB">
<feFlood flood-opacity="0" result="BackgroundImageFix"/>
<feBlend mode="normal" in="SourceGraphic" in2="BackgroundImageFix" result="shape"/>
<feGaussianBlur stdDeviation="23.7508" result="effect1_foregroundBlur_5_2"/>
</filter>
<filter id="filter5_f_5_2" x="172.499" y="53.4985" width="792.003" height="940.003" filterUnits="userSpaceOnUse" color-interpolation-filters="sRGB">
<feFlood flood-opacity="0" result="BackgroundImageFix"/>
<feBlend mode="normal" in="SourceGraphic" in2="BackgroundImageFix" result="shape"/>
<feGaussianBlur stdDeviation="22.7507" result="effect1_foregroundBlur_5_2"/>
</filter>
<filter id="filter6_f_5_2" x="246.103" y="196" width="692.91" height="755.945" filterUnits="userSpaceOnUse" color-interpolation-filters="sRGB">
<feFlood flood-opacity="0" result="BackgroundImageFix"/>
<feBlend mode="normal" in="SourceGraphic" in2="BackgroundImageFix" result="shape"/>
<feGaussianBlur stdDeviation="12.5" result="effect1_foregroundBlur_5_2"/>
</filter>
<filter id="filter7_f_5_2" x="312" y="328" width="593" height="653" filterUnits="userSpaceOnUse" color-interpolation-filters="sRGB">
<feFlood flood-opacity="0" result="BackgroundImageFix"/>
<feBlend mode="normal" in="SourceGraphic" in2="BackgroundImageFix" result="shape"/>
<feGaussianBlur stdDeviation="22.5" result="effect1_foregroundBlur_5_2"/>
</filter>
<filter id="filter8_f_5_2" x="406.072" y="851.072" width="445.856" height="144.856" filterUnits="userSpaceOnUse" color-interpolation-filters="sRGB">
<feFlood flood-opacity="0" result="BackgroundImageFix"/>
<feBlend mode="normal" in="SourceGraphic" in2="BackgroundImageFix" result="shape"/>
<feGaussianBlur stdDeviation="19.9641" result="effect1_foregroundBlur_5_2"/>
</filter>
<filter id="filter9_i_5_2" x="509.036" y="477.139" width="163.306" height="137.053" filterUnits="userSpaceOnUse" color-interpolation-filters="sRGB">
<feFlood flood-opacity="0" result="BackgroundImageFix"/>
<feBlend mode="normal" in="SourceGraphic" in2="BackgroundImageFix" result="shape"/>
<feColorMatrix in="SourceAlpha" type="matrix" values="0 0 0 0 0 0 0 0 0 0 0 0 0 0 0 0 0 0 127 0" result="hardAlpha"/>
<feOffset dx="-10.2341" dy="-7.86089"/>
<feGaussianBlur stdDeviation="14.2657"/>
<feComposite in2="hardAlpha" operator="arithmetic" k2="-1" k3="1"/>
<feColorMatrix type="matrix" values="0 0 0 0 0.68 0 0 0 0 1 0 0 0 0 0 0 0 0 0.31 0"/>
<feBlend mode="normal" in2="shape" result="effect1_innerShadow_5_2"/>
</filter>
<filter id="filter10_f_5_2" x="630.445" y="514.997" width="35.2546" height="83.113" filterUnits="userSpaceOnUse" color-interpolation-filters="sRGB">
<feFlood flood-opacity="0" result="BackgroundImageFix"/>
<feBlend mode="normal" in="SourceGraphic" in2="BackgroundImageFix" result="shape"/>
<feGaussianBlur stdDeviation="4.49678" result="effect1_foregroundBlur_5_2"/>
</filter>
<filter id="filter11_f_5_2" x="531.078" y="492.362" width="97.4556" height="82.2037" filterUnits="userSpaceOnUse" color-interpolation-filters="sRGB">
<feFlood flood-opacity="0" result="BackgroundImageFix"/>
<feBlend mode="normal" in="SourceGraphic" in2="BackgroundImageFix" result="shape"/>
<feGaussianBlur stdDeviation="7.13283" result="effect1_foregroundBlur_5_2"/>
</filter>
<filter id="filter12_f_5_2" x="521.127" y="481.915" width="165.48" height="146.544" filterUnits="userSpaceOnUse" color-interpolation-filters="sRGB">
<feFlood flood-opacity="0" result="BackgroundImageFix"/>
<feBlend mode="normal" in="SourceGraphic" in2="BackgroundImageFix" result="shape"/>
<feGaussianBlur stdDeviation="7.13283" result="effect1_foregroundBlur_5_2"/>
</filter>
<filter id="filter13_f_5_2" x="575.554" y="488.946" width="71.1001" height="137.524" filterUnits="userSpaceOnUse" color-interpolation-filters="sRGB">
<feFlood flood-opacity="0" result="BackgroundImageFix"/>
<feBlend mode="normal" in="SourceGraphic" in2="BackgroundImageFix" result="shape"/>
<feGaussianBlur stdDeviation="6.51258" result="effect1_foregroundBlur_5_2"/>
</filter>
<filter id="filter14_d_5_2" x="368.354" y="554.227" width="529.697" height="408.277" filterUnits="userSpaceOnUse" color-interpolation-filters="sRGB">
<feFlood flood-opacity="0" result="BackgroundImageFix"/>
<feColorMatrix in="SourceAlpha" type="matrix" values="0 0 0 0 0 0 0 0 0 0 0 0 0 0 0 0 0 0 127 0" result="hardAlpha"/>
<feOffset dy="1.24049"/>
<feGaussianBlur stdDeviation="22.4839"/>
<feColorMatrix type="matrix" values="0 0 0 0 1 0 0 0 0 0.54 0 0 0 0 0 0 0 0 0.5 0"/>
<feBlend mode="normal" in2="BackgroundImageFix" result="effect1_dropShadow_5_2"/>
<feBlend mode="normal" in="SourceGraphic" in2="effect1_dropShadow_5_2" result="shape"/>
</filter>
<filter id="filter15_i_5_2" x="385.1" y="572.835" width="467.983" height="343.461" filterUnits="userSpaceOnUse" color-interpolation-filters="sRGB">
<feFlood flood-opacity="0" result="BackgroundImageFix"/>
<feBlend mode="normal" in="SourceGraphic" in2="BackgroundImageFix" result="shape"/>
<feColorMatrix in="SourceAlpha" type="matrix" values="0 0 0 0 0 0 0 0 0 0 0 0 0 0 0 0 0 0 127 0" result="hardAlpha"/>
<feOffset dx="-30.0819" dy="-25.12"/>
<feGaussianBlur stdDeviation="14.1106"/>
<feComposite in2="hardAlpha" operator="arithmetic" k2="-1" k3="1"/>
<feColorMatrix type="matrix" values="0 0 0 0 0.0599132 0 0 0 0 0.845833 0 0 0 0 0.138505 0 0 0 0.81 0"/>
<feBlend mode="normal" in2="shape" result="effect1_innerShadow_5_2"/>
</filter>
<filter id="filter16_ddi_5_2" x="436.212" y="571.904" width="325.201" height="363.619" filterUnits="userSpaceOnUse" color-interpolation-filters="sRGB">
<feFlood flood-opacity="0" result="BackgroundImageFix"/>
<feColorMatrix in="SourceAlpha" type="matrix" values="0 0 0 0 0 0 0 0 0 0 0 0 0 0 0 0 0 0 127 0" result="hardAlpha"/>
<feOffset dx="-39.0755" dy="-3.41135"/>
<feGaussianBlur stdDeviation="11.3195"/>
<feColorMatrix type="matrix" values="0 0 0 0 1 0 0 0 0 0.54 0 0 0 0 0 0 0 0 1 0"/>
<feBlend mode="normal" in2="BackgroundImageFix" result="effect1_dropShadow_5_2"/>
<feColorMatrix in="SourceAlpha" type="matrix" values="0 0 0 0 0 0 0 0 0 0 0 0 0 0 0 0 0 0 127 0" result="hardAlpha"/>
<feOffset dy="1.24049"/>
<feGaussianBlur stdDeviation="0.620246"/>
<feColorMatrix type="matrix" values="0 0 0 0 0 0 0 0 0 0 0 0 0 0 0 0 0 0 0.25 0"/>
<feBlend mode="normal" in2="effect1_dropShadow_5_2" result="effect2_dropShadow_5_2"/>
<feBlend mode="normal" in="SourceGraphic" in2="effect2_dropShadow_5_2" result="shape"/>
<feColorMatrix in="SourceAlpha" type="matrix" values="0 0 0 0 0 0 0 0 0 0 0 0 0 0 0 0 0 0 127 0" result="hardAlpha"/>
<feOffset dx="-26.0503" dy="-10.2341"/>
<feGaussianBlur stdDeviation="7.86089"/>
<feComposite in2="hardAlpha" operator="arithmetic" k2="-1" k3="1"/>
<feColorMatrix type="matrix" values="0 0 0 0 0.933375 0 0 0 0 0.95 0 0 0 0 0.11875 0 0 0 0.75 0"/>
<feBlend mode="normal" in2="shape" result="effect3_innerShadow_5_2"/>
</filter>
<filter id="filter17_f_5_2" x="429.529" y="572.723" width="384.632" height="191.591" filterUnits="userSpaceOnUse" color-interpolation-filters="sRGB">
<feFlood flood-opacity="0" result="BackgroundImageFix"/>
<feBlend mode="normal" in="SourceGraphic" in2="BackgroundImageFix" result="shape"/>
<feGaussianBlur stdDeviation="20.6351" result="effect1_foregroundBlur_5_2"/>
</filter>
<filter id="filter18_f_5_2" x="504.24" y="564.644" width="157.611" height="237.657" filterUnits="userSpaceOnUse" color-interpolation-filters="sRGB">
<feFlood flood-opacity="0" result="BackgroundImageFix"/>
<feBlend mode="normal" in="SourceGraphic" in2="BackgroundImageFix" result="shape"/>
<feGaussianBlur stdDeviation="20.6351" result="effect1_foregroundBlur_5_2"/>
</filter>
<filter id="filter19_f_5_2" x="353.505" y="722.624" width="260.963" height="274.459" filterUnits="userSpaceOnUse" color-interpolation-filters="sRGB">
<feFlood flood-opacity="0" result="BackgroundImageFix"/>
<feBlend mode="normal" in="SourceGraphic" in2="BackgroundImageFix" result="shape"/>
<feGaussianBlur stdDeviation="8.06319" result="effect1_foregroundBlur_5_2"/>
</filter>
<filter id="filter20_f_5_2" x="388.396" y="714.561" width="493.76" height="252.437" filterUnits="userSpaceOnUse" color-interpolation-filters="sRGB">
<feFlood flood-opacity="0" result="BackgroundImageFix"/>
<feBlend mode="normal" in="SourceGraphic" in2="BackgroundImageFix" result="shape"/>
<feGaussianBlur stdDeviation="23.2592" result="effect1_foregroundBlur_5_2"/>
</filter>
<filter id="filter21_f_5_2" x="475.975" y="594.975" width="111.05" height="319.05" filterUnits="userSpaceOnUse" color-interpolation-filters="sRGB">
<feFlood flood-opacity="0" result="BackgroundImageFix"/>
<feBlend mode="normal" in="SourceGraphic" in2="BackgroundImageFix" result="shape"/>
<feGaussianBlur stdDeviation="6.51258" result="effect1_foregroundBlur_5_2"/>
</filter>
<filter id="filter22_iif_5_2" x="633.547" y="578.417" width="208.092" height="353.85" filterUnits="userSpaceOnUse" color-interpolation-filters="sRGB">
<feFlood flood-opacity="0" result="BackgroundImageFix"/>
<feBlend mode="normal" in="SourceGraphic" in2="BackgroundImageFix" result="shape"/>
<feColorMatrix in="SourceAlpha" type="matrix" values="0 0 0 0 0 0 0 0 0 0 0 0 0 0 0 0 0 0 127 0" result="hardAlpha"/>
<feOffset dy="1.24049"/>
<feGaussianBlur stdDeviation="0.620246"/>
<feComposite in2="hardAlpha" operator="arithmetic" k2="-1" k3="1"/>
<feColorMatrix type="matrix" values="0 0 0 0 0.425 0 0 0 0 0.189267 0 0 0 0 0.0566667 0 0 0 0.5 0"/>
<feBlend mode="normal" in2="shape" result="effect1_innerShadow_5_2"/>
<feColorMatrix in="SourceAlpha" type="matrix" values="0 0 0 0 0 0 0 0 0 0 0 0 0 0 0 0 0 0 127 0" result="hardAlpha"/>
<feOffset dx="21.0884" dy="6.51258"/>
<feGaussianBlur stdDeviation="0.620246"/>
<feComposite in2="hardAlpha" operator="arithmetic" k2="-1" k3="1"/>
<feColorMatrix type="matrix" values="0 0 0 0 0 0 0 0 0 0 0 0 0 0 0 0 0 0 0.25 0"/>
<feBlend mode="normal" in2="effect1_innerShadow_5_2" result="effect2_innerShadow_5_2"/>
<feGaussianBlur stdDeviation="7.28789" result="effect3_foregroundBlur_5_2"/>
</filter>
<filter id="filter23_f_5_2" x="679.754" y="600.436" width="112.343" height="312.914" filterUnits="userSpaceOnUse" color-interpolation-filters="sRGB">
<feFlood flood-opacity="0" result="BackgroundImageFix"/>
<feBlend mode="normal" in="SourceGraphic" in2="BackgroundImageFix" result="shape"/>
<feGaussianBlur stdDeviation="6.51258" result="effect1_foregroundBlur_5_2"/>
</filter>
<filter id="filter24_f_5_2" x="626.269" y="611.581" width="180.79" height="183.949" filterUnits="userSpaceOnUse" color-interpolation-filters="sRGB">
<feFlood flood-opacity="0" result="BackgroundImageFix"/>
<feBlend mode="normal" in="SourceGraphic" in2="BackgroundImageFix" result="shape"/>
<feGaussianBlur stdDeviation="11.9169" result="effect1_foregroundBlur_5_2"/>
</filter>
<linearGradient id="paint0_linear_5_2" x1="829.604" y1="179.448" x2="688.262" y2="791.789" gradientUnits="userSpaceOnUse">
<stop stop-color="#B9FF8D" stop-opacity="0"/>
<stop offset="0.50718" stop-color="#46FF85" stop-opacity="0.12"/>
<stop offset="1" stop-color="#FFE600" stop-opacity="0"/>
</linearGradient>
<linearGradient id="paint1_linear_5_2" x1="626.673" y1="485.356" x2="626.673" y2="1053" gradientUnits="userSpaceOnUse">
<stop stop-color="#50FF76" stop-opacity="0.38"/>
<stop offset="1" stop-color="#50FFA0" stop-opacity="0"/>
</linearGradient>
<linearGradient id="paint2_linear_5_2" x1="626.673" y1="509.107" x2="626.673" y2="753.38" gradientUnits="userSpaceOnUse">
<stop stop-color="#FFFACE"/>
<stop offset="1" stop-color="white" stop-opacity="0"/>
</linearGradient>
<linearGradient id="paint3_linear_5_2" x1="544.015" y1="327.792" x2="544.015" y2="1015.68" gradientUnits="userSpaceOnUse">
<stop stop-color="#A6FFEA" stop-opacity="0.95"/>
<stop offset="1" stop-color="#F6EB4E" stop-opacity="0"/>
</linearGradient>
<linearGradient id="paint4_linear_5_2" x1="837.165" y1="423.01" x2="625.491" y2="1009.92" gradientUnits="userSpaceOnUse">
<stop stop-color="#FFFBA0" stop-opacity="0.15"/>
<stop offset="1" stop-color="#3AFFE7" stop-opacity="0.06"/>
</linearGradient>
<linearGradient id="paint5_linear_5_2" x1="264.449" y1="316.177" x2="678.356" y2="769.179" gradientUnits="userSpaceOnUse">
<stop stop-color="#FDEE67" stop-opacity="0.49"/>
<stop offset="1" stop-color="#44FFE9" stop-opacity="0.29"/>
</linearGradient>
<radialGradient id="paint6_radial_5_2" cx="0" cy="0" r="1" gradientUnits="userSpaceOnUse" gradientTransform="translate(676.861 508.954) rotate(178.317) scale(223.799 355.093)">
<stop stop-color="#EDFFA4" stop-opacity="0.3"/>
<stop offset="1" stop-color="#B2FF50" stop-opacity="0.04"/>
</radialGradient>
<linearGradient id="paint7_linear_5_2" x1="390.329" y1="506.729" x2="669.754" y2="829.709" gradientUnits="userSpaceOnUse">
<stop stop-color="#FEFFD2" stop-opacity="0.31"/>
<stop offset="1" stop-color="#B2FF50" stop-opacity="0.1"/>
</linearGradient>
<linearGradient id="paint8_linear_5_2" x1="629" y1="891" x2="629" y2="956" gradientUnits="userSpaceOnUse">
<stop/>
<stop offset="1" stop-color="#151433" stop-opacity="0.87"/>
<stop offset="1" stop-color="#251F27" stop-opacity="0.87"/>
</linearGradient>
<radialGradient id="paint9_radial_5_2" cx="0" cy="0" r="1" gradientUnits="userSpaceOnUse" gradientTransform="translate(543.5 480) rotate(70.119) scale(146.794 126.358)">
<stop stop-color="#E8F360"/>
<stop offset="0.420971" stop-color="#F7B34E" stop-opacity="0.990923"/>
<stop offset="0.829897" stop-color="#FFA843"/>
<stop offset="1" stop-color="#89F235"/>
</radialGradient>
<linearGradient id="paint10_linear_5_2" x1="579.806" y1="506.628" x2="579.806" y2="560.3" gradientUnits="userSpaceOnUse">
<stop stop-color="#9E4722"/>
<stop offset="1" stop-color="#BB391C" stop-opacity="0.87"/>
</linearGradient>
<linearGradient id="paint11_linear_5_2" x1="603.867" y1="496.18" x2="603.867" y2="614.193" gradientUnits="userSpaceOnUse">
<stop stop-color="#9E4722"/>
<stop offset="1" stop-color="#BB391C" stop-opacity="0.87"/>
</linearGradient>
<radialGradient id="paint12_radial_5_2" cx="0" cy="0" r="1" gradientUnits="userSpaceOnUse" gradientTransform="translate(628.924 642.99) rotate(64.8675) scale(301.559 359.735)">
<stop stop-color="#F1A42F"/>
<stop offset="0.420971" stop-color="#FCDB69" stop-opacity="0.990923"/>
<stop offset="0.829897" stop-color="#F8B147" stop-opacity="0.77"/>
<stop offset="1" stop-color="#EEAF4F"/>
</radialGradient>
<radialGradient id="paint13_radial_5_2" cx="0" cy="0" r="1" gradientUnits="userSpaceOnUse" gradientTransform="translate(629.049 642.99) rotate(90.8281) scale(282.828 169.306)">
<stop stop-color="#F38B2C"/>
<stop offset="0.420971" stop-color="#FFA681" stop-opacity="0.990923"/>
<stop offset="0.829897" stop-color="#F79A10" stop-opacity="0.77"/>
</radialGradient>
<linearGradient id="paint14_linear_5_2" x1="490.797" y1="637.121" x2="520.843" y2="741.418" gradientUnits="userSpaceOnUse">
<stop stop-color="#FFEB37" stop-opacity="0.71"/>
<stop offset="1" stop-color="#FF7C02" stop-opacity="0.7"/>
</linearGradient>
<linearGradient id="paint15_linear_5_2" x1="512.43" y1="667.203" x2="527.488" y2="721.561" gradientUnits="userSpaceOnUse">
<stop stop-color="white"/>
<stop offset="1" stop-color="#FFFFF8" stop-opacity="0.7"/>
</linearGradient>
<linearGradient id="paint16_linear_5_2" x1="635.276" y1="761.08" x2="635.276" y2="920.48" gradientUnits="userSpaceOnUse">
<stop stop-color="#F8A120"/>
<stop offset="1" stop-color="#A5BB1C" stop-opacity="0.87"/>
</linearGradient>
<linearGradient id="paint17_linear_5_2" x1="543.35" y1="642.928" x2="543.35" y2="761.903" gradientUnits="userSpaceOnUse">
<stop stop-color="#27613E"/>
<stop offset="1" stop-color="#1B213F"/>
</linearGradient>
<linearGradient id="paint18_linear_5_2" x1="565.164" y1="653.467" x2="548.573" y2="769.453" gradientUnits="userSpaceOnUse">
<stop stop-color="#AF6E31"/>
<stop offset="0.558371" stop-color="#E45314" stop-opacity="0.990923"/>
<stop offset="1" stop-color="#FFC700"/>
</linearGradient>
<linearGradient id="paint19_linear_5_2" x1="59.4876" y1="0" x2="59.4876" y2="118.975" gradientUnits="userSpaceOnUse">
<stop stop-color="#27613E"/>
<stop offset="1" stop-color="#1B213F"/>
</linearGradient>
<linearGradient id="paint20_linear_5_2" x1="746.072" y1="653.466" x2="729.48" y2="769.452" gradientUnits="userSpaceOnUse">
<stop stop-color="#9C500A"/>
<stop offset="0.558371" stop-color="#E45314" stop-opacity="0.990923"/>
<stop offset="1" stop-color="#FFC700"/>
</linearGradient>
<linearGradient id="paint21_linear_5_2" x1="632.247" y1="737.819" x2="637.397" y2="772.162" gradientUnits="userSpaceOnUse">
<stop stop-color="#9C500A"/>
<stop offset="1" stop-color="#FF2E00"/>
</linearGradient>
<linearGradient id="paint22_linear_5_2" x1="628.894" y1="722.159" x2="628.894" y2="759.684" gradientUnits="userSpaceOnUse">
<stop stop-color="#1D2B3F"/>
<stop offset="1" stop-color="#1A4A33"/>
</linearGradient>
<linearGradient id="paint23_linear_5_2" x1="724.5" y1="863" x2="628.739" y2="891.176" gradientUnits="userSpaceOnUse">
<stop stop-color="#27613E"/>
<stop offset="1" stop-color="#1B213F"/>
</linearGradient>
<linearGradient id="paint24_linear_5_2" x1="715.5" y1="787.5" x2="706.25" y2="901.288" gradientUnits="userSpaceOnUse">
<stop stop-color="#225321"/>
<stop offset="0.558371" stop-color="#E46C14" stop-opacity="0.990923"/>
<stop offset="1" stop-color="#FFC700"/>
</linearGradient>
<linearGradient id="paint25_linear_5_2" x1="715.5" y1="787.5" x2="706.25" y2="901.288" gradientUnits="userSpaceOnUse">
<stop stop-color="#225321"/>
<stop offset="0.558371" stop-color="#E46C14" stop-opacity="0.990923"/>
<stop offset="1" stop-color="#FFC700"/>
</linearGradient>
<linearGradient id="paint26_linear_5_2" x1="715.5" y1="787.5" x2="706.25" y2="901.288" gradientUnits="userSpaceOnUse">
<stop stop-color="#225321"/>
<stop offset="0.558371" stop-color="#E46C14" stop-opacity="0.990923"/>
<stop offset="1" stop-color="#FFC700"/>
</linearGradient>
</defs>
</svg>
