<svg width="188" height="91" viewBox="0 0 188 91" fill="none" xmlns="http://www.w3.org/2000/svg">
<path d="M8.30886 22.122C9.2955 13.4216 16.4704 6.73518 25.2187 6.36344L149.532 1.08103C157.42 0.745815 164.585 5.65376 167.122 13.1308L180.101 51.3867C183.788 62.2524 176.369 73.7128 164.946 74.7969L22.3795 88.3275C11.1377 89.3944 1.76279 79.8464 3.03521 68.626L8.30886 22.122Z" stroke="#A7DE93"/>
<path d="M45.4165 45.6968C45.4165 42.0068 40.0465 43.1768 40.0465 41.0768C40.0465 40.2218 40.6615 39.8168 41.4865 39.8468C42.3865 39.8618 42.9415 40.4018 42.9865 41.0918H45.2965C45.1615 39.2018 43.6915 38.1068 41.5465 38.1068C39.3865 38.1068 37.8565 39.2468 37.8565 41.1368C37.8415 44.9318 43.2415 43.5668 43.2415 45.8318C43.2415 46.5818 42.6565 47.1068 41.6665 47.1068C40.6915 47.1068 40.1365 46.5518 40.0765 45.7118H37.8265C37.8565 47.6918 39.5365 48.8318 41.7115 48.8318C44.0965 48.8318 45.4165 47.3468 45.4165 45.6968ZM50.8071 42.0068C51.8871 42.0068 52.7571 42.6968 52.7871 43.7918H48.8421C49.0071 42.6518 49.8021 42.0068 50.8071 42.0068ZM54.7521 46.1168H52.4871C52.2171 46.6718 51.7221 47.1218 50.8221 47.1218C49.7721 47.1218 48.9321 46.4318 48.8271 45.2018H54.9021C54.9471 44.9318 54.9621 44.6618 54.9621 44.3918C54.9621 41.9168 53.2671 40.2818 50.8671 40.2818C48.4071 40.2818 46.6971 41.9468 46.6971 44.5718C46.6971 47.1818 48.4521 48.8618 50.8671 48.8618C52.9221 48.8618 54.3021 47.6468 54.7521 46.1168ZM60.0649 42.0068C61.1449 42.0068 62.0149 42.6968 62.0449 43.7918H58.0999C58.2649 42.6518 59.0599 42.0068 60.0649 42.0068ZM64.0099 46.1168H61.7449C61.4749 46.6718 60.9799 47.1218 60.0799 47.1218C59.0299 47.1218 58.1899 46.4318 58.0849 45.2018H64.1599C64.2049 44.9318 64.2199 44.6618 64.2199 44.3918C64.2199 41.9168 62.5249 40.2818 60.1249 40.2818C57.6649 40.2818 55.9549 41.9468 55.9549 44.5718C55.9549 47.1818 57.7099 48.8618 60.1249 48.8618C62.1799 48.8618 63.5599 47.6468 64.0099 46.1168ZM76.4369 48.7268H78.6569L74.8919 38.2418H72.4469L68.6819 48.7268H70.8869L71.5769 46.7318H75.7469L76.4369 48.7268ZM75.1769 45.0518H72.1469L73.6619 40.6718L75.1769 45.0518ZM80.0642 48.7268H82.1642V37.6268H80.0642V48.7268ZM84.239 48.7268H86.339V37.6268H84.239V48.7268ZM96.8181 38.1218C93.7881 38.1218 91.4781 40.3418 91.4781 43.4768C91.4781 46.6118 93.7881 48.8168 96.8331 48.8168C99.6231 48.8168 101.528 46.8668 101.948 44.7368V42.9068H96.2781V44.5118H99.8781C99.5631 45.9968 98.5281 46.9268 96.9081 46.9268C94.9581 46.9268 93.6381 45.6068 93.6381 43.4768C93.6381 41.3918 94.9431 40.0568 96.8181 40.0568C97.9281 40.0568 98.7981 40.5218 99.2781 41.4068H101.693C101.018 39.3068 99.1581 38.1218 96.8181 38.1218ZM103.502 48.7268H105.602V44.1368C105.602 42.8018 106.337 42.0818 107.477 42.0818C108.587 42.0818 109.322 42.8018 109.322 44.1368V48.7268H111.422V43.8518C111.422 41.5568 110.057 40.2968 108.182 40.2968C107.072 40.2968 106.142 40.7468 105.602 41.4518V37.6268H103.502V48.7268ZM121.444 44.5718C121.444 41.9468 119.569 40.2818 117.169 40.2818C114.769 40.2818 112.894 41.9468 112.894 44.5718C112.894 47.1818 114.709 48.8618 117.109 48.8618C119.524 48.8618 121.444 47.1818 121.444 44.5718ZM115.024 44.5718C115.024 42.9068 116.029 42.1118 117.139 42.1118C118.249 42.1118 119.284 42.9068 119.284 44.5718C119.284 46.2218 118.219 47.0318 117.109 47.0318C115.984 47.0318 115.024 46.2218 115.024 44.5718ZM129.434 46.3568C129.374 43.3118 124.769 44.2568 124.769 42.7418C124.769 42.2618 125.174 41.9468 125.954 41.9468C126.779 41.9468 127.289 42.3818 127.349 43.0268H129.359C129.239 41.3768 128.024 40.2818 126.014 40.2818C123.959 40.2818 122.729 41.3918 122.729 42.7718C122.729 45.8168 127.424 44.8718 127.424 46.3568C127.424 46.8368 126.974 47.2118 126.149 47.2118C125.309 47.2118 124.724 46.7318 124.649 46.1018H122.534C122.624 47.6468 124.079 48.8618 126.164 48.8618C128.189 48.8618 129.434 47.7818 129.434 46.3568ZM131.488 46.1468C131.488 48.0518 132.553 48.7268 134.143 48.7268H135.463V46.9568H134.488C133.828 46.9568 133.603 46.7168 133.603 46.1618V42.1418H135.463V40.4168H133.603V38.3618H131.488V40.4168H130.498V42.1418H131.488V46.1468Z" fill="white"/>
</svg>
