<svg width="97" height="41" viewBox="0 0 97 41" fill="none" xmlns="http://www.w3.org/2000/svg">
<path d="M24.34 25.098C23.6587 25.098 23.0427 24.9813 22.492 24.748C21.9507 24.5147 21.5213 24.1787 21.204 23.74C20.8867 23.3013 20.7233 22.7833 20.714 22.186H22.814C22.842 22.5873 22.982 22.9047 23.234 23.138C23.4953 23.3713 23.85 23.488 24.298 23.488C24.7553 23.488 25.1147 23.3807 25.376 23.166C25.6373 22.942 25.768 22.6527 25.768 22.298C25.768 22.0087 25.6793 21.7707 25.502 21.584C25.3247 21.3973 25.1007 21.2527 24.83 21.15C24.5687 21.038 24.2047 20.9167 23.738 20.786C23.1033 20.5993 22.5853 20.4173 22.184 20.24C21.792 20.0533 21.4513 19.778 21.162 19.414C20.882 19.0407 20.742 18.546 20.742 17.93C20.742 17.3513 20.8867 16.8473 21.176 16.418C21.4653 15.9887 21.8713 15.662 22.394 15.438C22.9167 15.2047 23.514 15.088 24.186 15.088C25.194 15.088 26.0107 15.3353 26.636 15.83C27.2707 16.3153 27.6207 16.9967 27.686 17.874H25.53C25.5113 17.538 25.3667 17.2627 25.096 17.048C24.8347 16.824 24.4847 16.712 24.046 16.712C23.6633 16.712 23.3553 16.81 23.122 17.006C22.898 17.202 22.786 17.4867 22.786 17.86C22.786 18.1213 22.87 18.3407 23.038 18.518C23.2153 18.686 23.43 18.826 23.682 18.938C23.9433 19.0407 24.3073 19.162 24.774 19.302C25.4087 19.4887 25.9267 19.6753 26.328 19.862C26.7293 20.0487 27.0747 20.3287 27.364 20.702C27.6533 21.0753 27.798 21.5653 27.798 22.172C27.798 22.6947 27.6627 23.18 27.392 23.628C27.1213 24.076 26.7247 24.4353 26.202 24.706C25.6793 24.9673 25.0587 25.098 24.34 25.098ZM36.8193 17.244V25H34.8453V24.02C34.5933 24.356 34.2619 24.622 33.8513 24.818C33.4499 25.0047 33.0113 25.098 32.5353 25.098C31.9286 25.098 31.3919 24.972 30.9253 24.72C30.4586 24.4587 30.0899 24.0807 29.8193 23.586C29.5579 23.082 29.4273 22.4847 29.4273 21.794V17.244H31.3873V21.514C31.3873 22.13 31.5413 22.606 31.8493 22.942C32.1573 23.2687 32.5773 23.432 33.1093 23.432C33.6506 23.432 34.0753 23.2687 34.3833 22.942C34.6913 22.606 34.8453 22.13 34.8453 21.514V17.244H36.8193ZM40.7131 18.364C40.9651 18.0093 41.3104 17.7153 41.7491 17.482C42.1971 17.2393 42.7058 17.118 43.2751 17.118C43.9378 17.118 44.5351 17.2813 45.0671 17.608C45.6084 17.9347 46.0331 18.4013 46.3411 19.008C46.6584 19.6053 46.8171 20.3007 46.8171 21.094C46.8171 21.8873 46.6584 22.592 46.3411 23.208C46.0331 23.8147 45.6084 24.286 45.0671 24.622C44.5351 24.958 43.9378 25.126 43.2751 25.126C42.7058 25.126 42.2018 25.0093 41.7631 24.776C41.3338 24.5427 40.9838 24.2487 40.7131 23.894V28.696H38.7531V17.244H40.7131V18.364ZM44.8151 21.094C44.8151 20.6273 44.7171 20.226 44.5211 19.89C44.3344 19.5447 44.0824 19.2833 43.7651 19.106C43.4571 18.9287 43.1211 18.84 42.7571 18.84C42.4024 18.84 42.0664 18.9333 41.7491 19.12C41.4411 19.2973 41.1891 19.5587 40.9931 19.904C40.8064 20.2493 40.7131 20.6553 40.7131 21.122C40.7131 21.5887 40.8064 21.9947 40.9931 22.34C41.1891 22.6853 41.4411 22.9513 41.7491 23.138C42.0664 23.3153 42.4024 23.404 42.7571 23.404C43.1211 23.404 43.4571 23.3107 43.7651 23.124C44.0824 22.9373 44.3344 22.6713 44.5211 22.326C44.7171 21.9807 44.8151 21.57 44.8151 21.094ZM50.2014 18.364C50.4534 18.0093 50.7987 17.7153 51.2374 17.482C51.6854 17.2393 52.1941 17.118 52.7634 17.118C53.4261 17.118 54.0234 17.2813 54.5554 17.608C55.0967 17.9347 55.5214 18.4013 55.8294 19.008C56.1467 19.6053 56.3054 20.3007 56.3054 21.094C56.3054 21.8873 56.1467 22.592 55.8294 23.208C55.5214 23.8147 55.0967 24.286 54.5554 24.622C54.0234 24.958 53.4261 25.126 52.7634 25.126C52.1941 25.126 51.6901 25.0093 51.2514 24.776C50.8221 24.5427 50.4721 24.2487 50.2014 23.894V28.696H48.2414V17.244H50.2014V18.364ZM54.3034 21.094C54.3034 20.6273 54.2054 20.226 54.0094 19.89C53.8227 19.5447 53.5707 19.2833 53.2534 19.106C52.9454 18.9287 52.6094 18.84 52.2454 18.84C51.8907 18.84 51.5547 18.9333 51.2374 19.12C50.9294 19.2973 50.6774 19.5587 50.4814 19.904C50.2947 20.2493 50.2014 20.6553 50.2014 21.122C50.2014 21.5887 50.2947 21.9947 50.4814 22.34C50.6774 22.6853 50.9294 22.9513 51.2374 23.138C51.5547 23.3153 51.8907 23.404 52.2454 23.404C52.6094 23.404 52.9454 23.3107 53.2534 23.124C53.5707 22.9373 53.8227 22.6713 54.0094 22.326C54.2054 21.9807 54.3034 21.57 54.3034 21.094ZM61.1737 25.126C60.427 25.126 59.755 24.9627 59.1577 24.636C58.5603 24.3 58.089 23.8287 57.7437 23.222C57.4077 22.6153 57.2397 21.9153 57.2397 21.122C57.2397 20.3287 57.4123 19.6287 57.7577 19.022C58.1123 18.4153 58.593 17.9487 59.1997 17.622C59.8063 17.286 60.483 17.118 61.2297 17.118C61.9763 17.118 62.653 17.286 63.2597 17.622C63.8663 17.9487 64.3423 18.4153 64.6877 19.022C65.0423 19.6287 65.2197 20.3287 65.2197 21.122C65.2197 21.9153 65.0377 22.6153 64.6737 23.222C64.319 23.8287 63.8337 24.3 63.2177 24.636C62.611 24.9627 61.9297 25.126 61.1737 25.126ZM61.1737 23.418C61.5283 23.418 61.8597 23.334 62.1677 23.166C62.485 22.9887 62.737 22.7273 62.9237 22.382C63.1103 22.0367 63.2037 21.6167 63.2037 21.122C63.2037 20.3847 63.0077 19.82 62.6157 19.428C62.233 19.0267 61.7617 18.826 61.2017 18.826C60.6417 18.826 60.1703 19.0267 59.7877 19.428C59.4143 19.82 59.2277 20.3847 59.2277 21.122C59.2277 21.8593 59.4097 22.4287 59.7737 22.83C60.147 23.222 60.6137 23.418 61.1737 23.418ZM68.6174 18.448C68.8694 18.0373 69.1961 17.7153 69.5974 17.482C70.0081 17.2487 70.4747 17.132 70.9974 17.132V19.19H70.4794C69.8634 19.19 69.3967 19.3347 69.0794 19.624C68.7714 19.9133 68.6174 20.4173 68.6174 21.136V25H66.6574V17.244H68.6174V18.448ZM74.5996 18.854V22.606C74.5996 22.8673 74.6602 23.0587 74.7816 23.18C74.9122 23.292 75.1269 23.348 75.4256 23.348H76.3356V25H75.1036C73.4516 25 72.6256 24.1973 72.6256 22.592V18.854H71.7016V17.244H72.6256V15.326H74.5996V17.244H76.3356V18.854H74.5996Z" fill="#F8F8FD"/>
<rect x="0.5" y="0.5" width="96" height="40" rx="20" stroke="#F8F8FD"/>
</svg>
